# xmcd
#
# Track frame offsets:
#	182
#	14595
#	30902
#	48477
#	62795
#	78697
#	88980
#	105395
#	121125
#	136520
#
# Disc length: 1981 seconds
#
# Revision: 1
# Processed by: cddbd v1.5.1PL2 Copyright (c) Steve Scherf et al.
# Submitted via: audiograbber 1.83.01
#
DISCID=7907bb0a
DTITLE=The Sky Kings - The Sky Kings
DYEAR=1900
DGENRE=Country
TTITLE0=Picture perfect
TTITLE1=That just about says it all
TTITLE2=Lonely only goes so far
TTITLE3=Doin' what I shouldn't
TTITLE4=Love on our side
TTITLE5=That's how you learn about love
TTITLE6=A shot of loving you
TTITLE7=I must be doin' something right
TTITLE8=Who cares
TTITLE9=I can't trust my heart
EXTD=
EXTT0=
EXTT1=
EXTT2=
EXTT3=
EXTT4=
EXTT5=
EXTT6=
EXTT7=
EXTT8=
EXTT9=
PLAYORDER=
